<svg width="48" height="50" viewBox="0 0 48 50" fill="none" xmlns="http://www.w3.org/2000/svg">
<path d="M21.7624 20.0234H17.7625C17.229 20.0234 16.7965 20.4607 16.7965 21V26.0389C16.7965 26.5782 17.229 27.0155 17.7625 27.0155H21.7624C22.2958 27.0155 22.7283 26.5782 22.7283 26.0389V21C22.7283 20.4607 22.2958 20.0234 21.7624 20.0234V20.0234ZM20.7964 25.0623H18.7284V21.9766H20.7964V25.0623Z" fill="white"/>
<path d="M26.2378 27.0155H30.2376C30.7711 27.0155 31.2036 26.5782 31.2036 26.0389V21C31.2036 20.4607 30.7711 20.0234 30.2376 20.0234H26.2378C25.7043 20.0234 25.2718 20.4607 25.2718 21V26.0389C25.2718 26.5782 25.7043 27.0155 26.2378 27.0155ZM27.2037 21.9766H29.2717V25.0623H27.2037V21.9766Z" fill="white"/>
<path d="M21.7624 29.4336H17.7625C17.229 29.4336 16.7965 29.8708 16.7965 30.4102V35.449C16.7965 35.9884 17.229 36.4256 17.7625 36.4256H21.7624C22.2958 36.4256 22.7283 35.9884 22.7283 35.449V30.4102C22.7283 29.8708 22.2958 29.4336 21.7624 29.4336ZM20.7964 34.4725H18.7284V31.3869H20.7964V34.4725Z" fill="white"/>
<path d="M31.2036 35.449V30.4102C31.2036 29.8708 30.7711 29.4336 30.2376 29.4336H26.2378C25.7043 29.4336 25.2718 29.8708 25.2718 30.4102V35.449C25.2718 35.9884 25.7043 36.4256 26.2378 36.4256H30.2376C30.7711 36.4256 31.2036 35.9884 31.2036 35.449ZM29.2717 34.4724H27.2037V31.3868H29.2717V34.4724Z" fill="white"/>
<path d="M48 34.8292C48 32.9165 47.2696 31.1728 46.0756 29.8679C46.0757 29.8637 46.0758 29.8595 46.0758 29.8553V17.6261C46.0758 17.0868 45.6434 16.6495 45.1099 16.6495H35.4398V15.6284C35.4398 15.0891 35.0074 14.6519 34.4739 14.6519H13.526C12.9925 14.6519 12.5601 15.0891 12.5601 15.6284V16.6495H2.8901C2.35661 16.6495 1.92416 17.0868 1.92416 17.6261V29.8681C0.730349 31.173 0 32.9166 0 34.8292C0 36.7419 0.730349 38.4855 1.92416 39.7904V49.0232C1.92416 49.5626 2.35661 49.9998 2.8901 49.9998H45.11C45.6435 49.9998 46.0759 49.5626 46.0759 49.0232V39.7904C47.2696 38.4855 48 36.7419 48 34.8292V34.8292ZM6.27631 48.0466H3.85604V41.2951C4.59634 41.6922 5.41247 41.9635 6.2764 42.0804V48.0466H6.27631ZM1.93188 34.8292C1.93188 31.8722 4.31419 29.4664 7.24235 29.4664C10.1705 29.4664 12.5528 31.8722 12.5528 34.8292C12.5528 37.7863 10.1705 40.1921 7.24235 40.1921C4.31409 40.192 1.93188 37.7862 1.93188 34.8292V34.8292ZM12.5601 48.0466H8.20819V42.0804C9.91888 41.8491 11.4425 41.0122 12.5601 39.7908V48.0466ZM12.5601 29.8676C11.236 28.4205 9.34202 27.5131 7.24225 27.5131C6.01975 27.5131 4.86709 27.8207 3.85595 28.3632V18.6026H12.5601V29.8676ZM46.0681 34.8292C46.0681 37.7863 43.6858 40.1921 40.7577 40.1921C37.8295 40.1921 35.4472 37.7863 35.4472 34.8292C35.4472 31.8722 37.8295 29.4664 40.7577 29.4664C43.6859 29.4664 46.0681 31.8721 46.0681 34.8292ZM39.7917 48.0466H35.4398V39.7908C36.5574 41.0122 38.0809 41.8491 39.7917 42.0803V48.0466ZM27.3137 48.0466H20.6863V41.7948H27.3137V48.0466ZM28.2796 39.8416H19.7204C19.1869 39.8416 18.7544 40.2788 18.7544 40.8182V48.0466H14.492V16.6049H33.5081V21.2618C33.5081 21.8012 33.9405 22.2384 34.474 22.2384C35.0075 22.2384 35.4399 21.8012 35.4399 21.2618V18.6027H44.1441V28.3634C43.1329 27.8208 41.9802 27.5133 40.7577 27.5133C38.6471 27.5133 36.7444 28.4302 35.4195 29.8903C35.3278 29.4474 34.9394 29.1148 34.4741 29.1148C33.9406 29.1148 33.5082 29.552 33.5082 30.0914V48.0466H29.2457V40.8182C29.2456 40.2788 28.8131 39.8416 28.2796 39.8416ZM41.7236 48.0466V42.0804C42.5875 41.9636 43.4037 41.6923 44.144 41.2951V48.0466H41.7236Z" fill="white"/>
<path d="M33.5826 26.0683C33.7374 26.4438 34.1167 26.6902 34.5199 26.6705C34.9124 26.6514 35.2625 26.3848 35.389 26.0088C35.517 25.6281 35.3945 25.195 35.087 24.9402C34.7619 24.6706 34.288 24.6469 33.9381 24.8827C33.5599 25.1376 33.4079 25.6442 33.5826 26.0683V26.0683Z" fill="white"/>
<path d="M20.1446 7.63548L19.9024 10.6524C19.8752 10.992 20.0249 11.3213 20.2974 11.5215C20.5701 11.7217 20.926 11.7639 21.237 11.6327L24.0002 10.4675L26.7632 11.6327C26.8829 11.6832 27.0093 11.708 27.135 11.708C27.3359 11.708 27.5352 11.6447 27.7029 11.5215C27.9755 11.3213 28.1252 10.9919 28.0979 10.6524L27.8557 7.63548L29.8057 5.33866C30.025 5.08016 30.0954 4.72479 29.9913 4.40076C29.8872 4.07683 29.6236 3.83112 29.2958 3.75241L26.383 3.05308L24.825 0.468367C24.6497 0.177444 24.3371 0 24.0002 0C23.6632 0 23.3507 0.177444 23.1753 0.468367L21.6173 3.05308L18.7045 3.75241C18.3766 3.83112 18.1131 4.07683 18.009 4.40076C17.9049 4.72469 17.9753 5.08016 18.1946 5.33866L20.1446 7.63548ZM22.4556 4.85926C22.7065 4.79901 22.923 4.63992 23.0573 4.41736L24.0002 2.85317L24.943 4.41736C25.0772 4.63992 25.2937 4.7991 25.5446 4.85926L27.3074 5.28241L26.1274 6.67238C25.9595 6.87014 25.8767 7.12766 25.8976 7.38743L26.0442 9.21314L24.372 8.50796C24.253 8.45776 24.1267 8.43266 24.0002 8.43266C23.8737 8.43266 23.7473 8.45776 23.6283 8.50796L21.9561 9.21314L22.1028 7.38743C22.1236 7.12756 22.0408 6.87014 21.873 6.67238L20.693 5.28241L22.4556 4.85926Z" fill="white"/>
<path d="M32.4279 9.8421L32.2469 12.0958C32.2197 12.4353 32.3694 12.7647 32.6419 12.9649C32.9145 13.1651 33.2706 13.2072 33.5815 13.0761L35.6457 12.2056L37.7099 13.0761C37.8296 13.1266 37.9559 13.1513 38.0817 13.1513C38.2826 13.1513 38.4819 13.088 38.6496 12.9648C38.9222 12.7646 39.0719 12.4352 39.0445 12.0957L38.8636 9.842L40.3204 8.12615C40.5397 7.86765 40.6101 7.51227 40.506 7.18824C40.4019 6.86431 40.1383 6.61861 39.8105 6.53989L37.6346 6.01742L36.4706 4.08653C36.2953 3.79561 35.9827 3.61816 35.6458 3.61816C35.3089 3.61816 34.9963 3.79561 34.821 4.08653L33.657 6.01742L31.481 6.53989C31.1533 6.61861 30.8897 6.86431 30.7855 7.18824C30.6814 7.51217 30.7518 7.86765 30.9713 8.12615L32.4279 9.8421ZM34.4953 7.8238C34.7462 7.76355 34.9628 7.60446 35.097 7.3819L35.6458 6.47153L36.1945 7.3819C36.3287 7.60446 36.5453 7.76364 36.7961 7.8238L37.822 8.0701L37.1353 8.87909C36.9674 9.07685 36.8846 9.33437 36.9055 9.59414L36.9908 10.6567L36.0176 10.2462C35.8986 10.196 35.7722 10.1709 35.6457 10.1709C35.5192 10.1709 35.3928 10.196 35.2738 10.2462L34.3006 10.6566L34.3859 9.59405C34.4068 9.33428 34.324 9.07675 34.1561 8.879L33.4693 8.07L34.4953 7.8238Z" fill="white"/>
<path d="M9.13801 9.8419L8.95709 12.0956C8.92985 12.4351 9.07957 12.7645 9.35206 12.9647C9.51975 13.0879 9.71902 13.1512 9.91994 13.1512C10.0456 13.1512 10.172 13.1264 10.2917 13.076L12.3559 12.2055L14.4202 13.076C14.7311 13.2071 15.0872 13.165 15.3598 12.9648C15.6324 12.7646 15.7821 12.4352 15.7548 12.0957L15.5739 9.842L17.0305 8.12615C17.25 7.86765 17.3204 7.51227 17.2163 7.18824C17.1122 6.86431 16.8485 6.6186 16.5208 6.53989L14.3448 6.01742L13.1809 4.08653C13.0055 3.79561 12.693 3.61816 12.356 3.61816C12.0191 3.61816 11.7065 3.79561 11.5312 4.08653L10.3673 6.01742L8.19129 6.53989C7.86345 6.6186 7.59994 6.86431 7.49581 7.18824C7.39168 7.51217 7.4621 7.86765 7.68146 8.12615L9.13801 9.8419ZM11.2055 7.82361C11.4564 7.76335 11.6729 7.60427 11.8072 7.3817L12.3559 6.47134L12.9047 7.3817C13.0389 7.60427 13.2554 7.76345 13.5064 7.82361L14.5323 8.0699L13.8455 8.8789C13.6776 9.07665 13.5949 9.33418 13.6157 9.59395L13.701 10.6565L12.7278 10.2461C12.4898 10.1458 12.2222 10.1458 11.9842 10.2461L11.011 10.6566L11.0963 9.59404C11.1171 9.33418 11.0343 9.07675 10.8665 8.87899L10.1797 8.07L11.2055 7.82361Z" fill="white"/>
</svg>
