<svg width="33" height="33" viewBox="0 0 33 33" fill="none" xmlns="http://www.w3.org/2000/svg">
<path d="M0 5C0 2.23858 2.23858 0 5 0H33V33H5C2.23858 33 0 30.7614 0 28V5Z" fill="#0C1F3F"/>
<path d="M9.5 12.125C9.5 11.6418 9.89175 11.25 10.375 11.25H22.625C23.1082 11.25 23.5 11.6418 23.5 12.125C23.5 12.6082 23.1082 13 22.625 13H10.375C9.89175 13 9.5 12.6082 9.5 12.125ZM9.5 16.5C9.5 16.0168 9.89175 15.625 10.375 15.625H22.625C23.1082 15.625 23.5 16.0168 23.5 16.5C23.5 16.9832 23.1082 17.375 22.625 17.375H10.375C9.89175 17.375 9.5 16.9832 9.5 16.5ZM9.5 20.875C9.5 20.3918 9.89175 20 10.375 20H22.625C23.1082 20 23.5 20.3918 23.5 20.875C23.5 21.3582 23.1082 21.75 22.625 21.75H10.375C9.89175 21.75 9.5 21.3582 9.5 20.875Z" fill="white"/>
</svg>
