<svg width="51" height="50" viewBox="0 0 51 50" fill="none" xmlns="http://www.w3.org/2000/svg">
<g clip-path="url(#clip0_1_759)">
<path d="M28.9116 1.68666C28.9116 0.757954 29.8247 0 30.9619 0C32.0991 0 33.0122 0.75379 33.0122 1.68666V9.0663C33.0122 9.995 32.0991 10.753 30.9619 10.753C29.8247 10.753 28.9116 9.99917 28.9116 9.0663V1.68666ZM37.9221 23.7506C39.6902 23.7506 41.3794 24.1046 42.9233 24.746C44.5295 25.4123 45.9697 26.3868 47.1733 27.5945C48.377 28.8023 49.3481 30.2515 50.0122 31.8549C50.6514 33.4041 51.0042 35.0991 51.0042 36.8732C51.0042 38.6473 50.6514 40.3423 50.0122 41.8916C49.3481 43.5032 48.377 44.9484 47.1733 46.1561C45.9697 47.3638 44.5254 48.3383 42.9275 49.0047C41.3835 49.646 39.6943 50 37.9263 50C36.1582 50 34.469 49.646 32.925 49.0047C31.3188 48.3383 29.8787 47.3638 28.675 46.1561C27.4714 44.9484 26.5002 43.4991 25.8362 41.8916C25.197 40.3423 24.8442 38.6473 24.8442 36.8732C24.8442 35.0991 25.197 33.4041 25.8362 31.8549C26.5002 30.2432 27.4714 28.7981 28.675 27.5904C29.8787 26.3826 31.323 25.4081 32.9209 24.7418C34.4648 24.1046 36.1499 23.7506 37.9221 23.7506ZM36.9426 31.3885C36.9426 31.072 37.0713 30.7846 37.2788 30.5764C37.4863 30.3681 37.7727 30.239 38.0923 30.239C38.4119 30.239 38.6982 30.3681 38.9058 30.5764C39.1133 30.7846 39.2419 31.072 39.2419 31.3926V37.5312L43.8157 40.2549L43.853 40.2799C44.1062 40.4423 44.2722 40.688 44.3386 40.9587C44.4092 41.2419 44.376 41.5501 44.2224 41.8166L44.2141 41.8291C44.2058 41.8457 44.1975 41.8582 44.1851 41.8707C44.0232 42.1206 43.7783 42.2872 43.5127 42.3538C43.2305 42.4246 42.9233 42.3913 42.6577 42.2372L37.5444 39.2012C37.366 39.1054 37.2166 38.9597 37.1086 38.7889C37.0007 38.614 36.9385 38.41 36.9385 38.1934L36.9426 31.3885ZM45.5505 29.2187C44.5544 28.2192 43.3674 27.4155 42.0518 26.8699C40.7817 26.341 39.3872 26.0536 37.9221 26.0536C36.457 26.0536 35.0625 26.3452 33.7925 26.8699C32.4768 27.4155 31.2898 28.2192 30.2937 29.2187C29.2976 30.2182 28.4966 31.4093 27.9529 32.7295C27.4258 34.0038 27.1394 35.4031 27.1394 36.8732C27.1394 38.3433 27.4299 39.7426 27.9529 41.017C28.4966 42.3372 29.2976 43.5282 30.2937 44.5277C31.2898 45.5272 32.4768 46.331 33.7925 46.8766C35.0625 47.4055 36.457 47.6928 37.9221 47.6928C39.3872 47.6928 40.7817 47.4013 42.0518 46.8766C43.3674 46.331 44.5544 45.5272 45.5505 44.5277C47.5054 42.5662 48.709 39.8634 48.709 36.8732C48.709 35.4031 48.4185 34.0038 47.8955 32.7295C47.3477 31.4093 46.5466 30.2182 45.5505 29.2187ZM5.58228 23.8881C5.46606 23.8881 5.3623 23.3758 5.3623 22.747C5.3623 22.1181 5.45361 21.61 5.58228 21.61H11.177C11.2932 21.61 11.397 22.1223 11.397 22.747C11.397 23.3758 11.3057 23.8881 11.177 23.8881H5.58228ZM14.5015 23.8881C14.3853 23.8881 14.2815 23.3758 14.2815 22.747C14.2815 22.1181 14.3728 21.61 14.5015 21.61H20.0962C20.2124 21.61 20.3162 22.1223 20.3162 22.747C20.3162 23.3758 20.2249 23.8881 20.0962 23.8881H14.5015ZM23.4207 23.8881C23.3044 23.8881 23.2007 23.3758 23.2007 22.747C23.2007 22.1181 23.292 21.61 23.4207 21.61H29.0154C29.1316 21.61 29.2354 22.1181 29.2354 22.7428C28.675 23.0926 28.1355 23.4758 27.6209 23.8881H23.4207ZM5.59473 30.4181C5.47852 30.4181 5.37476 29.9059 5.37476 29.277C5.37476 28.6482 5.46606 28.1359 5.59473 28.1359H11.1895C11.3057 28.1359 11.4094 28.6482 11.4094 29.277C11.4094 29.9059 11.3181 30.4181 11.1895 30.4181H5.59473ZM14.5139 30.4181C14.3977 30.4181 14.2939 29.9059 14.2939 29.277C14.2939 28.6482 14.3853 28.1359 14.5139 28.1359H20.1086C20.2249 28.1359 20.3286 28.6482 20.3286 29.277C20.3286 29.9059 20.2373 30.4181 20.1086 30.4181H14.5139ZM5.60718 36.9524C5.49097 36.9524 5.38721 36.4401 5.38721 35.8113C5.38721 35.1824 5.47852 34.6702 5.60718 34.6702H11.2019C11.3181 34.6702 11.4219 35.1824 11.4219 35.8113C11.4219 36.4401 11.3306 36.9524 11.2019 36.9524H5.60718ZM14.5264 36.9524C14.4102 36.9524 14.3064 36.4401 14.3064 35.8113C14.3064 35.1824 14.3977 34.6702 14.5264 34.6702H20.1211C20.2373 34.6702 20.3411 35.1824 20.3411 35.8113C20.3411 36.4401 20.2498 36.9524 20.1211 36.9524H14.5264ZM10.4963 1.68666C10.4963 0.757954 11.4094 0 12.5466 0C13.6838 0 14.5969 0.75379 14.5969 1.68666V9.0663C14.5969 9.995 13.6797 10.753 12.5466 10.753C11.4094 10.753 10.4963 9.99917 10.4963 9.0663V1.68666ZM2.25781 16.1336H41.3047V7.63785C41.3047 7.34633 41.1885 7.09229 41.0017 6.90488C40.8149 6.71747 40.5493 6.60087 40.2712 6.60087H36.5276C35.9009 6.60087 35.3904 6.08862 35.3904 5.45977C35.3904 4.83092 35.9009 4.31867 36.5276 4.31867H40.2712C41.1885 4.31867 42.0103 4.68932 42.6121 5.29319C43.2139 5.89705 43.5833 6.72164 43.5833 7.64201V21.1311C42.8362 20.8729 42.0684 20.6647 41.2798 20.5106V18.4033H41.3047H2.25781V40.4048C2.25781 40.6963 2.37402 40.9504 2.56079 41.1378C2.74756 41.3252 3.01318 41.4418 3.29126 41.4418H21.8477C22.0593 42.2331 22.325 43.0035 22.6445 43.7448H3.31201C2.39893 43.7448 1.573 43.3741 0.971191 42.7703C0.369385 42.1706 0 41.346 0 40.4256V7.64618C0 6.72997 0.369385 5.90122 0.971191 5.29735C1.573 4.69349 2.39478 4.32284 3.31201 4.32284H7.30884C7.93555 4.32284 8.44605 4.83508 8.44605 5.46393C8.44605 6.09279 7.93555 6.60503 7.30884 6.60503H3.31201C3.02148 6.60503 2.76831 6.72164 2.58154 6.90905C2.39478 7.09645 2.27856 7.36299 2.27856 7.64201V16.1378H2.25781V16.1336ZM17.8757 6.60087C17.249 6.60087 16.7385 6.08862 16.7385 5.45977C16.7385 4.83092 17.249 4.31867 17.8757 4.31867H25.4958C26.1226 4.31867 26.6331 4.83092 26.6331 5.45977C26.6331 6.08862 26.1226 6.60087 25.4958 6.60087H17.8757Z" fill="#FF9916"/>
</g>
<defs>
<clipPath id="clip0_1_759">
<rect width="51" height="50" fill="white"/>
</clipPath>
</defs>
</svg>
