<svg width="56" height="56" viewBox="0 0 56 56" fill="none" xmlns="http://www.w3.org/2000/svg">
<path fill-rule="evenodd" clip-rule="evenodd" d="M37.3334 4.66699H18.6667C10.9348 4.66699 4.66675 10.935 4.66675 18.667V37.3337C4.66675 45.0656 10.9348 51.3337 18.6667 51.3337H37.3334C45.0654 51.3337 51.3334 45.0656 51.3334 37.3337V18.667C51.3334 10.935 45.0654 4.66699 37.3334 4.66699ZM9.33341 18.667C9.33341 13.5123 13.5121 9.33366 18.6667 9.33366H37.3334C42.4881 9.33366 46.6667 13.5123 46.6667 18.667V37.3337C46.6667 42.4883 42.4881 46.667 37.3334 46.667H18.6667C13.5121 46.667 9.33341 42.4883 9.33341 37.3337V18.667ZM28.0001 39.667C21.5568 39.667 16.3334 34.4437 16.3334 28.0003C16.3334 21.557 21.5568 16.3337 28.0001 16.3337C34.4434 16.3337 39.6667 21.557 39.6667 28.0003C39.6667 34.4437 34.4434 39.667 28.0001 39.667ZM28.0001 35.0003C31.8661 35.0003 35.0001 31.8663 35.0001 28.0003C35.0001 24.1343 31.8661 21.0003 28.0001 21.0003C24.1341 21.0003 21.0001 24.1343 21.0001 28.0003C21.0001 31.8663 24.1341 35.0003 28.0001 35.0003ZM42.0001 16.3337C42.0001 17.6223 40.9554 18.667 39.6667 18.667C38.3781 18.667 37.3334 17.6223 37.3334 16.3337C37.3334 15.045 38.3781 14.0003 39.6667 14.0003C40.9554 14.0003 42.0001 15.045 42.0001 16.3337Z" fill="#FFF4E7"/>
</svg>
