<svg width="56" height="56" viewBox="0 0 56 56" fill="none" xmlns="http://www.w3.org/2000/svg">
<path fill-rule="evenodd" clip-rule="evenodd" d="M9.33341 4.66699H46.6667C49.2441 4.66699 51.3334 6.75633 51.3334 9.33366V46.667C51.3334 49.2443 49.2441 51.3337 46.6667 51.3337H9.33341C6.75609 51.3337 4.66675 49.2443 4.66675 46.667V9.33366C4.66675 6.75633 6.75609 4.66699 9.33341 4.66699ZM9.33341 9.33366V46.667H46.6667V9.33366H9.33341ZM30.3334 21.0003C29.1253 21.0003 27.849 21.3696 26.7218 22.0553L25.6667 21.0003H23.3334V37.3337H28.0001V28.0003C28.0001 26.6569 29.386 25.667 30.3334 25.667H32.6667C33.6142 25.667 35.0001 26.6569 35.0001 28.0003V37.3337H39.6668V28.0003C39.6668 23.6771 35.9193 21.0003 32.6667 21.0003H30.3334ZM18.6667 18.667C19.9554 18.667 21.0001 17.6223 21.0001 16.3337C21.0001 15.045 19.9554 14.0003 18.6667 14.0003C17.3781 14.0003 16.3334 15.045 16.3334 16.3337C16.3334 17.6223 17.3781 18.667 18.6667 18.667ZM16.3334 21.0003V37.3337H21.0001V21.0003H16.3334Z" fill="#FFF4E7"/>
</svg>
