<svg width="52" height="52" viewBox="0 0 52 52" fill="none" xmlns="http://www.w3.org/2000/svg">
<path d="M31.8594 30.8828C31.8594 27.652 29.2309 25.0234 26 25.0234C22.7691 25.0234 20.1406 27.652 20.1406 30.8828C20.1406 34.1137 22.7691 36.7422 26 36.7422C29.2309 36.7422 31.8594 34.1137 31.8594 30.8828ZM26 34.7891C23.8461 34.7891 22.0938 33.0367 22.0938 30.8828C22.0938 28.7289 23.8461 26.9766 26 26.9766C28.1539 26.9766 29.9062 28.7289 29.9062 30.8828C29.9062 33.0367 28.1539 34.7891 26 34.7891Z" fill="#FF9916" stroke="#FF9916" stroke-width="0.5"/>
<path d="M15.8438 30.8828C15.8438 27.652 13.2152 25.0234 9.98438 25.0234C6.75352 25.0234 4.125 27.652 4.125 30.8828C4.125 34.1137 6.75352 36.7422 9.98438 36.7422C13.2152 36.7422 15.8438 34.1137 15.8438 30.8828ZM9.98438 34.7891C7.83047 34.7891 6.07812 33.0367 6.07812 30.8828C6.07812 28.7289 7.83047 26.9766 9.98438 26.9766C12.1383 26.9766 13.8906 28.7289 13.8906 30.8828C13.8906 33.0367 12.1383 34.7891 9.98438 34.7891Z" fill="#FF9916" stroke="#FF9916" stroke-width="0.5"/>
<path d="M47.875 30.8828C47.875 27.652 45.2465 25.0234 42.0156 25.0234C38.7848 25.0234 36.1562 27.652 36.1562 30.8828C36.1562 34.1137 38.7848 36.7422 42.0156 36.7422C45.2465 36.7422 47.875 34.1137 47.875 30.8828ZM42.0156 34.7891C39.8617 34.7891 38.1094 33.0367 38.1094 30.8828C38.1094 28.7289 39.8617 26.9766 42.0156 26.9766C44.1695 26.9766 45.9219 28.7289 45.9219 30.8828C45.9219 33.0367 44.1695 34.7891 42.0156 34.7891Z" fill="#FF9916" stroke="#FF9916" stroke-width="0.5"/>
<path d="M42.0156 36.7422C38.5104 36.7422 35.4802 38.7705 34.0078 41.5732C32.5393 38.7777 29.5166 36.7422 26 36.7422C22.4947 36.7422 19.4646 38.7705 17.9922 41.5732C16.5236 38.7777 13.501 36.7422 9.98438 36.7422C5.11582 36.7422 1 40.6811 1 45.5312V50.0234C1 50.5627 1.4373 51 1.97656 51H50.0234C50.5627 51 51 50.5627 51 50.0234V45.5312C51 40.6814 46.8845 36.7422 42.0156 36.7422ZM26 38.6953C29.8113 38.6953 33.0312 41.8258 33.0312 45.5312V49.0469H18.9688V45.5312C18.9688 41.8258 22.1887 38.6953 26 38.6953ZM2.95312 45.5312C2.95312 41.8258 6.17305 38.6953 9.98438 38.6953C13.7957 38.6953 17.0156 41.8258 17.0156 45.5312V49.0469H2.95312V45.5312ZM49.0469 49.0469H34.9844V45.5312C34.9844 41.8258 38.2043 38.6953 42.0156 38.6953C45.827 38.6953 49.0469 41.8258 49.0469 45.5312V49.0469Z" fill="#FF9916" stroke="#FF9916" stroke-width="0.5"/>
<path d="M26 6.85938C24.3846 6.85938 23.0703 8.17363 23.0703 9.78906C23.0703 11.4045 24.3846 12.7188 26 12.7188C27.6154 12.7188 28.9297 11.4045 28.9297 9.78906C28.9297 8.17363 27.6154 6.85938 26 6.85938ZM26 10.7656C25.4615 10.7656 25.0234 10.3275 25.0234 9.78906C25.0234 9.25059 25.4615 8.8125 26 8.8125C26.5385 8.8125 26.9766 9.25059 26.9766 9.78906C26.9766 10.3275 26.5385 10.7656 26 10.7656Z" fill="#FF9916" stroke="#FF9916" stroke-width="0.5"/>
<path d="M15.2578 9.78906C15.2578 11.4045 16.5721 12.7188 18.1875 12.7188C19.8029 12.7188 21.1172 11.4045 21.1172 9.78906C21.1172 8.17363 19.8029 6.85938 18.1875 6.85938C16.5721 6.85938 15.2578 8.17363 15.2578 9.78906ZM19.1641 9.78906C19.1641 10.3275 18.726 10.7656 18.1875 10.7656C17.649 10.7656 17.2109 10.3275 17.2109 9.78906C17.2109 9.25059 17.649 8.8125 18.1875 8.8125C18.726 8.8125 19.1641 9.25059 19.1641 9.78906Z" fill="#FF9916" stroke="#FF9916" stroke-width="0.5"/>
<path d="M36.7422 9.78906C36.7422 8.17363 35.4279 6.85938 33.8125 6.85938C32.1971 6.85938 30.8828 8.17363 30.8828 9.78906C30.8828 11.4045 32.1971 12.7188 33.8125 12.7188C35.4279 12.7188 36.7422 11.4045 36.7422 9.78906ZM32.8359 9.78906C32.8359 9.25059 33.274 8.8125 33.8125 8.8125C34.351 8.8125 34.7891 9.25059 34.7891 9.78906C34.7891 10.3275 34.351 10.7656 33.8125 10.7656C33.274 10.7656 32.8359 10.3275 32.8359 9.78906Z" fill="#FF9916" stroke="#FF9916" stroke-width="0.5"/>
<path d="M26 2.95312C26.5393 2.95312 26.9766 2.5159 26.9766 1.97656C26.9766 1.43722 26.5393 1 26 1C25.4607 1 25.0234 1.43722 25.0234 1.97656C25.0234 2.5159 25.4607 2.95312 26 2.95312Z" fill="#FF9916" stroke="#FF9916" stroke-width="0.5"/>
<path d="M27.0575 17.2122L26 19.6445L24.9425 17.2122C24.7874 16.8556 24.4356 16.625 24.0469 16.625H14.2812C10.5118 16.625 7.44531 13.5585 7.44531 9.78906C7.44531 6.01963 10.5118 2.95312 14.2812 2.95312H21.6055C22.1447 2.95312 22.582 2.51582 22.582 1.97656C22.582 1.4373 22.1447 1 21.6055 1H14.2812C9.43496 1 5.49219 4.94277 5.49219 9.78906C5.49219 14.6354 9.43496 18.5781 14.2812 18.5781H23.4065L25.1044 22.4831C25.2595 22.8396 25.6111 23.0703 26 23.0703C26.3889 23.0703 26.7405 22.8397 26.8956 22.4831L28.5935 18.5781H37.7188C42.565 18.5781 46.5078 14.6354 46.5078 9.78906C46.5078 4.94277 42.565 1 37.7188 1H30.3945C29.8553 1 29.418 1.4373 29.418 1.97656C29.418 2.51582 29.8553 2.95312 30.3945 2.95312H37.7188C41.4882 2.95312 44.5547 6.01963 44.5547 9.78906C44.5547 13.5585 41.4882 16.625 37.7188 16.625H27.9531C27.5644 16.625 27.2126 16.8556 27.0575 17.2122Z" fill="#FF9916" stroke="#FF9916" stroke-width="0.5"/>
</svg>
