<svg width="50" height="50" viewBox="0 0 50 50" fill="none" xmlns="http://www.w3.org/2000/svg">
<path fill-rule="evenodd" clip-rule="evenodd" d="M25 48.5993L26.3703 47.4028C37.8931 37.3413 43.75 28.5559 43.75 20.8335C43.75 9.89738 35.2145 2.0835 25 2.0835C14.7855 2.0835 6.25 9.89738 6.25 20.8335C6.25 28.5559 12.1069 37.3413 23.6297 47.4028L25 48.5993ZM25 43.0489C15.2221 34.2367 10.4167 26.7694 10.4167 20.8335C10.4167 12.2848 17.0086 6.25016 25 6.25016C32.9914 6.25016 39.5833 12.2848 39.5833 20.8335C39.5833 26.7694 34.7779 34.2367 25 43.0489ZM25 10.4168C30.753 10.4168 35.4167 15.0805 35.4167 20.8335C35.4167 26.5865 30.753 31.2502 25 31.2502C19.247 31.2502 14.5833 26.5865 14.5833 20.8335C14.5833 15.0805 19.247 10.4168 25 10.4168ZM18.75 20.8335C18.75 17.3817 21.5482 14.5835 25 14.5835C28.4518 14.5835 31.25 17.3817 31.25 20.8335C31.25 24.2853 28.4518 27.0835 25 27.0835C21.5482 27.0835 18.75 24.2853 18.75 20.8335Z" fill="#FF9916"/>
</svg>
