<svg width="184" height="137" viewBox="0 0 184 137" fill="none" xmlns="http://www.w3.org/2000/svg">
<path d="M37 0.499997C49.3333 0.499997 59.1667 4.99999 66.5 14C74.1667 22.6666 78 34.1666 78 48.5C78 67.1666 72.5 84.6666 61.5 101C50.5 117 36.8333 129 20.5 137L17.5 131C24.5 125.667 30.6667 118.833 36 110.5C41.3333 102.167 45.1667 91.8333 47.5 79.5L37 77C25.3333 74.3333 16.1667 69.5 9.5 62.5C3.16667 55.1667 7.59959e-07 46.5 7.59959e-07 36.5C7.59959e-07 25.8333 3.5 17.1666 10.5 10.5C17.8333 3.83333 26.6667 0.499997 37 0.499997ZM142.5 0.499997C154.833 0.499997 164.667 4.99999 172 14C179.667 22.6666 183.5 34.1666 183.5 48.5C183.5 67.1666 178 84.6666 167 101C156 117 142.333 129 126 137L123 131C130 125.667 136.167 118.833 141.5 110.5C146.833 102.167 150.667 91.8333 153 79.5L142.5 77C130.833 74.3333 121.667 69.5 115 62.5C108.667 55.1667 105.5 46.5 105.5 36.5C105.5 25.8333 109 17.1666 116 10.5C123.333 3.83333 132.167 0.499997 142.5 0.499997Z" fill="#F3F2F0"/>
</svg>
