<svg width="56" height="56" viewBox="0 0 56 56" fill="none" xmlns="http://www.w3.org/2000/svg">
<path fill-rule="evenodd" clip-rule="evenodd" d="M49.279 10.5196L52.5801 10.9051L51.0962 13.879C50.3726 15.3292 49.6482 16.7794 48.9232 18.2297C48.8372 18.5368 48.6861 18.8061 48.4626 19.1567C48.3692 19.3032 48.0502 19.7692 48.0353 19.7915C47.9511 19.9179 47.8888 20.0175 47.8439 20.0973V25.6705C47.8439 39.9318 34.0423 48.9943 21.0083 48.9943C18.3413 48.9943 16.3149 48.8665 13.9946 48.3602C10.1761 47.5269 7.33439 45.8705 6.03402 42.9756L4.69524 39.9952L7.94879 39.696C10.8921 39.4253 13.444 38.8646 15.4038 38.1138C10.0235 37.2485 7.00848 34.8855 7.00848 30.4477V28.1144H9.34181C9.85448 28.1144 10.3167 28.0728 10.73 27.9965C6.69208 25.5822 4.6696 21.7092 4.6696 16.3372C4.66916 16.1082 4.66916 16.1082 4.66778 15.8634C4.65261 13.1557 4.79805 11.7089 5.53929 9.86238C6.01435 8.67895 6.70102 7.58339 7.62518 6.57955L9.38594 4.66699L11.0978 6.62342C16.7393 13.0707 22.316 16.9822 28.0098 17.4553C28.0341 11.5061 32.5303 7.00388 38.5102 7.00388C41.2979 7.00388 43.8266 8.06202 45.8139 9.97002C46.9015 10.1935 48.0566 10.3769 49.279 10.5196ZM44.1202 14.3784L43.4049 14.2164L42.9109 13.6743C41.7165 12.3636 40.2173 11.6705 38.5102 11.6705C35.0966 11.6705 32.6764 14.1028 32.6764 17.5039C32.6764 18.0597 32.662 18.409 32.5928 18.868C32.3165 20.6997 31.2891 22.1705 29.1763 22.1705C22.1809 22.1705 15.8699 18.423 9.71583 12.0223C9.39857 12.9867 9.32396 13.9781 9.33437 15.8373C9.33578 16.0859 9.33578 16.0859 9.33627 16.3372C9.33627 21.1159 11.2723 23.7298 15.8562 25.1868L17.4827 25.7037V27.4105C17.4827 29.4801 15.5219 31.4283 12.653 32.301C13.9681 33.2988 16.6578 33.8372 21.0092 33.8372H23.3425V36.1705C23.3425 39.5136 19.5012 42.1311 13.6985 43.498C15.5909 44.0778 18.1106 44.3277 21.0083 44.3277C31.7753 44.3277 43.1773 36.8409 43.1773 25.6705V19.8372C43.1773 19.1517 43.376 18.5567 43.7061 17.938C43.8352 17.6962 43.9773 17.4655 44.1527 17.2025C44.1857 17.153 44.3082 16.9736 44.4054 16.8302L44.5904 16.4603C44.89 15.861 45.1896 15.2617 45.489 14.6625C45.0237 14.5743 44.5674 14.4796 44.1202 14.3784Z" fill="#FFF4E7"/>
</svg>
