<svg width="56" height="56" viewBox="0 0 56 56" fill="none" xmlns="http://www.w3.org/2000/svg">
<path fill-rule="evenodd" clip-rule="evenodd" d="M51.3912 42.2987C52.9856 39.5663 53.6668 35.1604 53.6668 27.9931C53.6668 20.8545 52.992 16.4741 51.3807 13.6684C49.7658 10.7549 47.8505 9.83008 44.0495 9.60811C41.4547 9.43223 35.0054 9.33301 28.0064 9.33301C20.9922 9.33301 14.5402 9.43219 11.9258 9.60949C8.1461 9.83061 6.23042 10.7574 4.60134 13.6791C3.01339 16.4751 2.3335 20.8769 2.3335 28.0193C2.3335 35.1211 3.01668 39.545 4.61529 42.3319C6.22319 45.2159 8.10834 46.1316 11.9202 46.3993C14.6599 46.5596 21.4771 46.6663 28.0064 46.6663C34.521 46.6663 41.3349 46.5596 44.0495 46.401C47.8965 46.1316 49.7813 45.2145 51.3912 42.2987ZM43.7558 14.2655C46.1334 14.4044 46.5743 14.6181 47.3279 15.9822C48.4251 17.8823 49.0002 21.601 49.0002 28.0193C49.0002 34.389 48.422 38.1281 47.333 39.9953C46.5768 41.3636 46.1389 41.5767 43.7504 41.744C41.181 41.8939 34.4332 41.9997 28.0064 41.9997C21.5651 41.9997 14.8139 41.894 12.2199 41.7423C9.86085 41.5765 9.41668 41.3607 8.67721 40.0345C7.58084 38.1229 7.00016 34.3628 7.00016 27.9931C7.00016 21.6273 7.57775 17.8879 8.66825 15.9677C9.41924 14.621 9.86653 14.4046 12.2201 14.2668C14.712 14.0979 21.1034 13.9997 28.0064 13.9997C34.8946 13.9997 41.283 14.098 43.7558 14.2655ZM23.3335 20.9997L35.0002 27.9997L23.3335 34.9997V20.9997Z" fill="#FFF4E7"/>
</svg>
